<?xml version="1.0" encoding="iso-8859-1"?>
<!-- Generator: Adobe Illustrator 19.0.0, SVG Export Plug-In . SVG Version: 6.00 Build 0)  -->
<svg version="1.1" id="Capa_1" xmlns="http://www.w3.org/2000/svg" xmlns:xlink="http://www.w3.org/1999/xlink" x="0px" y="0px"
	 viewBox="0 0 226 226" style="enable-background:new 0 0 226 226;" xml:space="preserve">
<path d="M163,193V0h-23v19.585c-7-5.042-17.059-7.981-27-7.981c-27.57,0-50,22.519-50,50.198V193H36v33h154v-33H163z M93,184H74v-16
	h19V184z M93,158H74v-16h19V158z M93,132H74v-16h19V132z M122,184h-19v-16h19V184z M122,158h-19v-16h19V158z M122,132h-19v-16h19
	V132z M151,184h-19v-16h19V184z M151,158h-19v-16h19V158z M151,132h-19v-16h19V132z M151,90H74V53h77V90z"/>
<g>
</g>
<g>
</g>
<g>
</g>
<g>
</g>
<g>
</g>
<g>
</g>
<g>
</g>
<g>
</g>
<g>
</g>
<g>
</g>
<g>
</g>
<g>
</g>
<g>
</g>
<g>
</g>
<g>
</g>
</svg>
